<svg xmlns="http://www.w3.org/2000/svg" width="220.228" height="203.259" viewBox="0 0 220.228 203.259">
  <g id="Group_9" data-name="Group 9" transform="translate(-171.015 -69.484)">
    <g id="Group_3" data-name="Group 3" transform="translate(171.015 182.745)">
      <g id="Group_1" data-name="Group 1" transform="translate(0.001)">
        <path id="Path_3" data-name="Path 3" d="M175.79,432.892V459.41H160.337v-26.06c0-5.761-2.684-8.314-6.808-8.314-4,0-7.2,2.748-7.2,8.84V459.41l-15.453,3.764v-49.6h14.994v4.91a15.506,15.506,0,0,1,12.833-5.958C169.5,412.529,175.79,419.8,175.79,432.892Z" transform="translate(-130.873 -412.529)"/>
        <path id="Path_4" data-name="Path 4" d="M255.686,426.306v22.525h6.874v11.654h-29.2V448.831h6.875V426.306h-6.875V414.652h29.2v11.654Z" transform="translate(-182.782 -413.604)"/>
        <path id="Path_5" data-name="Path 5" d="M349.69,432.892V459.41H334.236v-26.06c0-5.761-2.684-8.314-6.808-8.314-4,0-7.2,2.748-7.2,8.84V459.41H304.773V413.577h14.995v4.91a15.5,15.5,0,0,1,12.832-5.958C343.4,412.529,349.69,419.8,349.69,432.892Z" transform="translate(-218.953 -412.529)"/>
        <path id="Path_6" data-name="Path 6" d="M399.425,461.272,411.2,447.279c-.834,5.79,1.252,8.689,3.806,8.689,3.209,0,4.976-1.965,4.976-5.7V426.306H404.4V414.652h30.839v34.7c0,12.571-6.614,18.726-18.921,18.726C409.181,468.08,403.223,465.724,399.425,461.272Z" transform="translate(-266.895 -413.604)"/>
        <path id="Path_7" data-name="Path 7" d="M530.758,434.987v28.187l-15.453-3.764v-9.231H500.769v9.231H485.58V434.987c0-14.339,9.231-22.458,22.589-22.458S530.758,420.649,530.758,434.987Zm-15.453,3.537v-4.846c0-5.894-3.076-8.642-7.267-8.642s-7.269,2.748-7.269,8.642v4.846Z" transform="translate(-310.532 -412.529)"/>
      </g>
      <g id="Group_2" data-name="Group 2" transform="translate(0 56.951)">
        <path id="Path_8" data-name="Path 8" d="M130.871,544.455c0-9.706,7.449-16.523,17.607-16.523,6.185,0,11.059,2.257,14.174,6.321l-6.725,6a8.543,8.543,0,0,0-6.909-3.7c-4.424,0-7.4,3.069-7.4,7.9s2.979,7.9,7.4,7.9a8.539,8.539,0,0,0,6.909-3.7l6.725,6c-3.115,4.064-7.99,6.321-14.174,6.321C138.32,560.978,130.871,554.161,130.871,544.455Z" transform="translate(-130.871 -527.932)"/>
        <path id="Path_9" data-name="Path 9" d="M232.129,543.417v16.839H221.475v-6.365H211.453v6.365H200.98V543.417c0-9.886,6.365-15.485,15.575-15.485S232.129,533.531,232.129,543.417Zm-10.654,2.439v-3.341c0-4.064-2.121-5.958-5.01-5.958s-5.012,1.895-5.012,5.958v3.341Z" transform="translate(-166.381 -527.932)"/>
        <path id="Path_10" data-name="Path 10" d="M323.857,541.07v19.186H313.2v-18.87c0-3.205-1.8-4.83-4.56-4.83-2.8,0-4.74,1.715-4.74,5.19v18.51H293.249v-18.87c0-3.205-1.627-4.83-4.2-4.83-2.617,0-4.378,1.715-4.378,5.19v18.51H274.017v-31.6h10.292v3.161c1.9-2.529,4.832-3.884,8.714-3.884,4.018,0,7.043,1.445,8.984,4.244,2.257-2.844,5.779-4.244,9.886-4.244C319.342,527.932,323.857,532.492,323.857,541.07Z" transform="translate(-203.375 -527.932)"/>
        <path id="Path_11" data-name="Path 11" d="M414.563,541.315c0,7.313-5.6,11.917-14.4,11.917H395.6V561H384.949V529.4h15.214C408.965,529.4,414.563,534,414.563,541.315Zm-10.744,0c0-2.3-1.4-3.7-4.334-3.7H395.6v7.4h3.881C402.42,545.017,403.819,543.616,403.819,541.315Z" transform="translate(-259.562 -528.674)"/>
        <path id="Path_12" data-name="Path 12" d="M481.365,529.4V561H471.029v-3.385a10.581,10.581,0,0,1-8.76,4.108c-7.357,0-11.691-5.01-11.691-14.04V529.4h10.653v17.968c0,3.974,1.851,5.734,4.606,5.734,2.663,0,4.876-1.9,4.876-6.094V529.4Z" transform="translate(-292.803 -528.674)"/>
        <path id="Path_13" data-name="Path 13" d="M519.407,557.729l3.431-7.766a21.68,21.68,0,0,0,10.429,2.889c3.025,0,4.107-.632,4.107-1.716,0-3.972-17.471-.767-17.471-12.55,0-5.869,4.922-10.655,14.718-10.655a25.084,25.084,0,0,1,11.917,2.755l-3.206,7.719a19.476,19.476,0,0,0-8.8-2.347c-3.115,0-4.108.9-4.108,1.985,0,3.794,17.469.633,17.469,12.279,0,5.779-4.92,10.655-14.716,10.655C527.894,560.978,522.568,559.669,519.407,557.729Z" transform="translate(-327.665 -527.932)"/>
      </g>
    </g>
    <g id="Group_8" data-name="Group 8" transform="translate(-169.969 -277.294)">
      <path id="Path_42" data-name="Path 42" d="M498.959,425.092c0,10.346,0,29.611-44.169,29.611-37.733,0-44.169-19.265-44.169-29.611s19.775-7.854,44.169-7.854S498.959,414.745,498.959,425.092Z" transform="translate(-5.113 -27.339)" fill="#fff"/>
      <path id="Path_43" data-name="Path 43" d="M425.313,436.851c-1.3,2.106.43,1.054,3.288-.68,2.179-1.322,3.287-1.833,10.181-.777,6.68,1.024,10.623,2.523,13.995,4.77,1.764,1.176,2.6-1.821-.853-4.5C451.012,434.964,433.779,423.16,425.313,436.851Z" transform="translate(-10.663 -32.517)"/>
      <path id="Path_44" data-name="Path 44" d="M573.423,380.461a18.908,18.908,0,0,0-4.614-1.2c2.679-4.8,2.618-10.988,2.391-13.97-.078-1.029-1.167-2.36-2-1.745-4.872,3.616-11.85,1.564-15.979,6.224-7.573,8.547-1.363,17.368-1.363,17.368a25.054,25.054,0,0,0,5.472-.454,20.813,20.813,0,0,0-1.19,3.518s6.636,3.424,11.733.879c3.823-1.91,5.7-6.636,6.392-8.879A1.423,1.423,0,0,0,573.423,380.461Z" transform="translate(-59.188 -6.47)" fill="#8762d9"/>
      <path id="Path_45" data-name="Path 45" d="M501.921,393.366a60.645,60.645,0,0,0-.458-7.154A68.051,68.051,0,0,0,499.7,378.2c0-.09.007-.179.007-.269,0-17.2-21.676-31.151-48.414-31.151s-48.414,13.947-48.414,31.151c0,.09.006.179.007.269a68.207,68.207,0,0,0-1.759,8.013,60.592,60.592,0,0,0-.458,7.151c0,.361-.005.722,0,1.083,0,.135.006.269.009.4.156,8.994,2.465,15.793,7.71,23.286a34.882,34.882,0,0,0,9.9,9.414c5.5,3.62,11.832,6.066,18.351,8.675a37.4,37.4,0,0,0,29.307,0c6.519-2.609,12.846-5.055,18.351-8.675a34.884,34.884,0,0,0,9.9-9.414c5.243-7.492,7.552-14.291,7.709-23.284,0-.136.007-.272.009-.409C501.927,394.085,501.924,393.725,501.921,393.366Zm-30.548,26.74c-4.813-.2-9.678-1.35-14.434-1.73a144.923,144.923,0,0,0-11.284,0c-4.756.38-9.62,1.526-14.434,1.73-15.48.25-21.047-5.5-21.047-25.02,11.766,6.177,27.835,6.571,41.123,6.571s28.017-1.653,41.122-6.571C492.42,414.654,486.853,420.356,471.373,420.106Z" transform="translate(-1.237)"/>
      <g id="Group_4" data-name="Group 4" transform="translate(397.494 367.055)">
        <path id="Path_46" data-name="Path 46" d="M500.391,394.8c-1.271-1.5-1.805-16.653-5.216-14.622-26.37,15.706-67.239,14.788-92.508,10.216-1.686-.3-2.918-1.377-3.539,1.986-.281,1.521.454,3.684.18,5.9-.444,3.6-1.81,8.465-1.814,9.8C397.461,418.3,474.31,415.9,500.391,394.8Z" transform="translate(-397.494 -379.99)" fill="#8762d9"/>
      </g>
      <g id="Group_5" data-name="Group 5" transform="translate(435.669 382.564)">
        <path id="Path_47" data-name="Path 47" d="M460.026,415.192c-.143-.179,3.789-4.394,4.343-4.952a.957.957,0,0,1,1.515.023,3.933,3.933,0,0,1,.618.894c-.01.126-3.348,2.593-4.458,3.708,1.225.91,5.536,2.539,5.826,2.876a.966.966,0,0,1-.849,1.5C466.476,419.16,461.913,417.541,460.026,415.192Z" transform="translate(-460.022 -407.14)" fill="#fff"/>
        <path id="Path_48" data-name="Path 48" d="M472.773,419.921c5.26-6.953,5.585-14.247,6.039-14.458a3.618,3.618,0,0,1,1.535.064c2.2.314-3.851,14.056-6.332,14.387C473.618,419.966,472.987,420.213,472.773,419.921Z" transform="translate(-464.988 -405.393)" fill="#fff"/>
        <path id="Path_49" data-name="Path 49" d="M496.012,412.164c.131.18-4.061,4.417-4.65,4.978a.942.942,0,0,1-1.5-.024,3.6,3.6,0,0,1-.556-.9c.018-.126,3.631-2.887,4.809-4.007-1.157-.915-5.094-2.043-5.359-2.382-.367-.47-1.086-2.192.234-1.8C489.5,408.183,494.293,409.8,496.012,412.164Z" transform="translate(-471.006 -406.397)" fill="#fff"/>
      </g>
      <g id="Group_6" data-name="Group 6" transform="translate(426.564 401.556)">
        <circle id="Ellipse_1" data-name="Ellipse 1" cx="5.332" cy="5.332" r="5.332" transform="translate(0)"/>
        <circle id="Ellipse_2" data-name="Ellipse 2" cx="1.192" cy="1.192" r="1.192" transform="translate(2.564 2.562)" fill="#fff"/>
      </g>
      <path id="Path_50" data-name="Path 50" d="M523.1,436.851c1.3,2.106-.43,1.054-3.288-.68-2.178-1.322-3.286-1.833-10.181-.777-6.68,1.024-10.623,2.523-13.995,4.77-1.764,1.176-2.6-1.821.853-4.5C497.4,434.964,514.631,423.16,523.1,436.851Z" transform="translate(-37.625 -32.517)"/>
      <g id="Group_7" data-name="Group 7" transform="translate(462.892 401.556)">
        <circle id="Ellipse_3" data-name="Ellipse 3" cx="5.332" cy="5.332" r="5.332"/>
        <circle id="Ellipse_4" data-name="Ellipse 4" cx="1.192" cy="1.192" r="1.192" transform="translate(2.564 2.562)" fill="#fff"/>
      </g>
    </g>
  </g>
</svg>
