<?xml version="1.0" standalone="no"?>
<!DOCTYPE svg PUBLIC "-//W3C//DTD SVG 20010904//EN"
 "http://www.w3.org/TR/2001/REC-SVG-20010904/DTD/svg10.dtd">
<svg version="1.0" xmlns="http://www.w3.org/2000/svg"
 width="700.000000pt" height="700.000000pt" viewBox="0 0 700.000000 700.000000"
 preserveAspectRatio="xMidYMid meet">
<metadata>
Created by potrace 1.11, written by Peter Selinger 2001-2013
</metadata>
<g transform="translate(0.000000,700.000000) scale(0.100000,-0.100000)"
fill="#000000" stroke="none">
<path d="M3200 5590 c-906 -82 -1644 -480 -1924 -1038 -42 -84 -83 -220 -97
-323 l-13 -94 -35 0 c-29 0 -38 -6 -55 -35 -19 -32 -21 -51 -21 -230 -1 -190
-2 -200 -43 -397 -48 -229 -47 -245 21 -297 32 -24 36 -33 42 -89 35 -329 161
-645 373 -937 208 -285 472 -479 927 -681 381 -168 655 -263 875 -300 97 -17
403 -17 500 0 220 37 493 131 875 300 586 260 879 521 1119 998 169 339 228
746 175 1206 -6 49 -9 90 -7 92 1 1 32 -3 68 -11 288 -61 489 64 620 384 44
106 38 128 -40 159 -30 12 -84 27 -120 34 -36 7 -67 14 -68 15 -2 1 12 42 31
91 54 134 68 215 74 418 5 177 5 181 -19 215 -13 19 -31 36 -40 38 -8 2 -37
-11 -63 -27 -66 -42 -143 -66 -345 -106 -207 -42 -310 -85 -379 -160 l-42 -45
-26 32 c-50 63 -199 204 -278 264 -347 263 -817 442 -1345 509 -146 19 -596
28 -740 15z m358 -1722 c36 -36 -10 -206 -112 -413 -72 -146 -141 -247 -185
-270 -29 -14 -81 -21 -81 -9 0 3 17 31 38 62 98 145 163 297 212 492 17 69 33
131 35 138 6 16 77 16 93 0z m169 -83 c129 -49 265 -135 278 -175 5 -16 -19
-47 -107 -140 -62 -67 -123 -123 -136 -127 -26 -6 -72 29 -72 56 0 9 50 56
110 105 61 48 110 90 110 92 0 7 -93 50 -166 78 -40 15 -78 35 -87 44 -23 26
-30 61 -17 77 15 19 7 20 87 -10z m-627 -62 c11 -14 19 -31 17 -36 -1 -5 -45
-44 -97 -86 -52 -43 -95 -83 -95 -91 0 -7 58 -40 130 -72 155 -71 168 -85 125
-128 -26 -26 -47 -21 -176 40 -58 28 -122 68 -152 95 l-52 47 29 36 c16 21 68
79 116 130 96 101 119 111 155 65z m2380 -515 c0 -100 -19 -325 -36 -420 -39
-232 -107 -381 -223 -499 -124 -125 -276 -185 -531 -210 -160 -16 -323 -6
-610 38 l-245 37 -335 0 -335 0 -250 -37 c-137 -21 -306 -41 -375 -44 -143 -7
-326 9 -439 38 -347 89 -527 355 -568 843 l-6 78 49 -6 c58 -7 296 -26 331
-26 23 0 21 -4 -27 -57 -55 -61 -112 -152 -104 -164 7 -12 27 -2 149 67 143
82 187 92 350 75 66 -7 132 -15 147 -18 l27 -5 -26 -34 c-97 -128 -54 -309 92
-387 56 -30 164 -30 221 0 96 51 139 123 139 236 0 48 4 77 11 77 11 0 176
-82 231 -116 40 -24 67 -11 71 34 6 63 -74 164 -181 226 -26 15 -47 29 -47 29
0 1 176 1 390 -1 215 -2 461 1 548 7 86 5 158 8 160 6 2 -1 -23 -17 -54 -35
-114 -64 -199 -166 -192 -232 4 -45 31 -58 71 -34 64 39 218 116 230 116 8 0
12 -23 12 -77 0 -113 43 -185 139 -236 57 -30 165 -30 221 0 146 78 189 259
92 387 l-26 34 27 5 c15 3 81 11 147 18 163 17 207 7 350 -75 122 -69 142 -79
149 -67 8 13 -50 104 -108 168 -51 56 -170 143 -196 143 -5 0 -10 3 -10 8 0 4
61 23 136 41 75 19 197 56 272 81 76 26 143 48 150 49 8 1 12 -17 12 -61z
m-2883 -394 c15 -24 15 -29 2 -53 -11 -20 -22 -26 -49 -26 -27 0 -38 6 -49 26
-13 24 -13 29 2 53 12 18 26 26 47 26 21 0 35 -8 47 -26z m1737 13 c21 -16 24
-60 6 -82 -16 -20 -59 -19 -82 2 -51 46 20 121 76 80z"/>
</g>
</svg>
