<svg id="icons_back" data-name="icons/back" xmlns="http://www.w3.org/2000/svg" width="24" height="24" viewBox="0 0 24 24">
  <rect id="bg" width="24" height="24" fill="none"/>
  <g id="ico" transform="translate(-181 -50.533)">
    <path id="union" d="M8.6,18.3.526,10.22A1,1,0,0,1,0,9.339V9.276A1,1,0,0,1,.371,8.5q.035-.032.073-.061L8.6.28a1,1,0,0,1,1.414,0l.044.044a1,1,0,0,1,0,1.414L3.523,8.276H21a1,1,0,0,1,1,1v.063a1,1,0,0,1-1,1H3.563l6.5,6.5a1,1,0,0,1,0,1.414l-.044.044a1,1,0,0,1-1.414,0Z" transform="translate(183 53.231)" fill="#fff"/>
  </g>
</svg>
