<svg xmlns="http://www.w3.org/2000/svg" width="45.702" height="44.575" viewBox="0 0 45.702 44.575">
  <path id="github" d="M22.851,0a22.853,22.853,0,0,0-7.223,44.534c1.141.211,1.51-.5,1.51-1.1V39.181c-6.356,1.382-7.68-2.7-7.68-2.7A6.052,6.052,0,0,0,6.92,33.141c-2.074-1.419.158-1.388.158-1.388a4.8,4.8,0,0,1,3.5,2.356c2.038,3.492,5.345,2.483,6.65,1.9a4.848,4.848,0,0,1,1.451-3.054c-5.075-.581-10.41-2.54-10.41-11.294a8.844,8.844,0,0,1,2.354-6.134,8.219,8.219,0,0,1,.223-6.048s1.919-.613,6.286,2.342a21.659,21.659,0,0,1,11.443,0c4.363-2.955,6.278-2.342,6.278-2.342a8.211,8.211,0,0,1,.225,6.048,8.82,8.82,0,0,1,2.352,6.134c0,8.777-5.345,10.709-10.433,11.275a5.462,5.462,0,0,1,1.567,4.231v6.271c0,.607.366,1.322,1.525,1.1A22.855,22.855,0,0,0,22.851,0Z" fill="#fff"/>
</svg>
