<svg xmlns="http://www.w3.org/2000/svg" width="44.575" height="44.575" viewBox="0 0 44.575 44.575">
  <path id="instagram" d="M22.287,4.017c5.951,0,6.656.022,9.008.13,6.04.275,8.861,3.141,9.136,9.136.108,2.349.128,3.055.128,9.006s-.022,6.656-.128,9.006c-.277,5.99-3.091,8.861-9.136,9.136-2.351.108-3.053.13-9.008.13s-6.656-.022-9.006-.13c-6.055-.277-8.861-3.156-9.136-9.138-.108-2.349-.13-3.053-.13-9.006s.024-6.655.13-9.006c.277-5.993,3.091-8.861,9.136-9.136,2.351-.106,3.055-.128,9.006-.128Zm0-4.017C16.234,0,15.477.026,13.1.134,5.005.505.507,5,.136,13.1.026,15.477,0,16.234,0,22.287s.026,6.813.134,9.19C.505,39.571,5,44.07,13.1,44.441c2.379.108,3.137.134,9.19.134s6.813-.026,9.19-.134c8.087-.371,12.6-4.862,12.962-12.964.11-2.377.136-3.137.136-9.19s-.026-6.811-.134-9.188C44.077,5.013,39.58.507,31.479.136,29.1.026,28.34,0,22.287,0Zm0,10.843A11.445,11.445,0,1,0,33.732,22.287,11.445,11.445,0,0,0,22.287,10.843Zm0,18.874a7.429,7.429,0,1,1,7.429-7.429A7.428,7.428,0,0,1,22.287,29.716Zm11.9-22a2.674,2.674,0,1,0,2.673,2.674A2.676,2.676,0,0,0,34.185,7.717Z" fill="#fff"/>
</svg>
