<svg xmlns="http://www.w3.org/2000/svg" width="149.624" height="129.263" viewBox="0 0 149.624 129.263"><g transform="translate(0 68.118)"><g transform="translate(0.001)"><path d="M161.39,426.364v18.017h-10.5V426.675c0-3.914-1.824-5.649-4.625-5.649-2.715,0-4.894,1.867-4.894,6.006v17.348l-10.5,2.557v-33.7H141.06v3.336a10.535,10.535,0,0,1,8.719-4.048C157.119,412.529,161.39,417.468,161.39,426.364Z" transform="translate(-130.873 -412.529)"/><path d="M248.528,422.57v15.3H253.2v7.918h-19.84v-7.918h4.671v-15.3h-4.671v-7.918H253.2v7.918Z" transform="translate(-198.996 -413.94)"/><path d="M335.29,426.364v18.017h-10.5V426.675c0-3.914-1.824-5.649-4.625-5.649-2.715,0-4.893,1.867-4.893,6.006v17.348h-10.5v-31.14H314.96v3.336a10.534,10.534,0,0,1,8.718-4.048C331.019,412.529,335.29,417.468,335.29,426.364Z" transform="translate(-246.467 -412.529)"/><path d="M399.425,446.326l8-9.507c-.567,3.934.851,5.9,2.586,5.9,2.18,0,3.381-1.335,3.381-3.87V422.57H402.806v-7.918h20.952v23.577c0,8.541-4.494,12.723-12.855,12.723C406.054,450.951,402.006,449.35,399.425,446.326Z" transform="translate(-309.383 -413.94)"/><path d="M516.275,427.787v19.151l-10.5-2.557v-6.272H495.9v6.272H485.58V427.787c0-9.742,6.272-15.258,15.347-15.258S516.275,418.045,516.275,427.787Zm-10.5,2.4V426.9c0-4-2.09-5.872-4.937-5.872s-4.939,1.867-4.939,5.872v3.292Z" transform="translate(-366.651 -412.529)"/></g><g transform="translate(0 38.693)"><path d="M130.871,539.158c0-6.594,5.061-11.226,11.962-11.226,4.2,0,7.513,1.534,9.63,4.294l-4.569,4.079a5.8,5.8,0,0,0-4.694-2.515c-3.006,0-5.03,2.085-5.03,5.367s2.024,5.368,5.03,5.368a5.8,5.8,0,0,0,4.694-2.516l4.569,4.079c-2.117,2.761-5.428,4.294-9.63,4.294C135.932,550.384,130.871,545.753,130.871,539.158Z" transform="translate(-130.871 -527.932)"/><path d="M222.143,538.453v11.44H214.9v-4.324H208.1v4.324H200.98v-11.44c0-6.717,4.324-10.521,10.582-10.521S222.143,531.736,222.143,538.453ZM214.9,540.11v-2.27c0-2.761-1.441-4.048-3.4-4.048s-3.405,1.287-3.405,4.048v2.27Z" transform="translate(-177.473 -527.932)"/><path d="M307.878,536.858v13.035h-7.239v-12.82c0-2.178-1.226-3.281-3.1-3.281-1.9,0-3.22,1.165-3.22,3.526v12.576h-7.238v-12.82c0-2.178-1.105-3.281-2.853-3.281-1.778,0-2.974,1.165-2.974,3.526v12.576h-7.239v-21.47h6.993v2.148a7.93,7.93,0,0,1,12.024.245,8.256,8.256,0,0,1,6.717-2.883C304.811,527.932,307.878,531.03,307.878,536.858Z" transform="translate(-226.022 -527.932)"/><path d="M405.069,537.494c0,4.969-3.8,8.1-9.784,8.1h-3.1v5.276h-7.239V529.4h10.337C401.266,529.4,405.069,532.525,405.069,537.494Zm-7.3,0c0-1.564-.95-2.515-2.944-2.515h-2.637v5.03h2.637C396.819,540.009,397.769,539.057,397.769,537.494Z" transform="translate(-299.76 -528.905)"/><path d="M471.5,529.4v21.47h-7.023v-2.3a7.189,7.189,0,0,1-5.951,2.791c-5,0-7.943-3.4-7.943-9.539V529.4h7.237V541.6c0,2.7,1.258,3.9,3.129,3.9,1.81,0,3.313-1.288,3.313-4.14V529.4Z" transform="translate(-343.384 -528.905)"/><path d="M519.407,548.176l2.331-5.276a14.729,14.729,0,0,0,7.085,1.963c2.055,0,2.791-.429,2.791-1.166,0-2.7-11.87-.521-11.87-8.526,0-3.987,3.344-7.239,10-7.239a17.042,17.042,0,0,1,8.1,1.872l-2.178,5.245a13.232,13.232,0,0,0-5.98-1.595c-2.117,0-2.791.613-2.791,1.349,0,2.577,11.869.43,11.869,8.343,0,3.926-3.342,7.239-10,7.239A19.247,19.247,0,0,1,519.407,548.176Z" transform="translate(-389.136 -527.932)"/></g></g><g transform="translate(34.996)"><path d="M470.638,422.489c0,7.029,0,20.118-30.008,20.118-25.636,0-30.009-13.089-30.009-20.118s13.435-5.336,30.009-5.336S470.638,415.46,470.638,422.489Z" transform="translate(-405.176 -387.856)" fill="#fff"/><path d="M425.172,434.741c-.885,1.431.292.716,2.234-.462,1.48-.9,2.233-1.246,6.917-.528,4.538.7,7.217,1.714,9.508,3.241,1.2.8,1.769-1.237-.58-3.055C442.632,433.459,430.924,425.439,425.172,434.741Z" transform="translate(-413.516 -395.637)"/><path d="M565.742,374.988a12.846,12.846,0,0,0-3.135-.815c1.82-3.262,1.779-7.466,1.624-9.491-.053-.7-.793-1.6-1.356-1.186-3.31,2.457-8.051,1.063-10.856,4.229a9.612,9.612,0,0,0-.926,11.8,17.021,17.021,0,0,0,3.717-.309,14.143,14.143,0,0,0-.808,2.391s4.508,2.327,7.972.6c2.6-1.3,3.869-4.508,4.343-6.032A.966.966,0,0,0,565.742,374.988Z" transform="translate(-486.427 -356.499)" fill="#8762d9"/><path d="M469.461,378.43a41.21,41.21,0,0,0-.311-4.861,46.233,46.233,0,0,0-1.2-5.444c0-.061,0-.122,0-.183,0-11.689-14.727-21.164-32.893-21.164s-32.893,9.476-32.893,21.164c0,.061,0,.122,0,.183a46.341,46.341,0,0,0-1.2,5.444,41.167,41.167,0,0,0-.311,4.858c0,.246,0,.491,0,.736,0,.092,0,.183.006.275a26.376,26.376,0,0,0,5.238,15.821,23.7,23.7,0,0,0,6.728,6.4c3.74,2.459,8.039,4.121,12.468,5.894a25.413,25.413,0,0,0,19.911,0c4.429-1.773,8.728-3.435,12.468-5.894a23.7,23.7,0,0,0,6.728-6.4,26.379,26.379,0,0,0,5.238-15.819c0-.093,0-.185.006-.278C469.464,378.918,469.463,378.674,469.461,378.43ZM448.706,396.6c-3.27-.139-6.575-.917-9.806-1.176a98.457,98.457,0,0,0-7.666,0c-3.231.258-6.536,1.037-9.806,1.176-10.517.17-14.3-3.737-14.3-17,7.994,4.2,18.912,4.464,27.939,4.464s19.035-1.123,27.939-4.464C463.005,392.894,459.223,396.767,448.706,396.6Z" transform="translate(-399.353 -346.778)"/><g transform="translate(0 13.776)"><path d="M467.4,390.051c-.863-1.017-1.227-11.314-3.544-9.934-17.916,10.671-45.682,10.047-62.851,6.941-1.145-.207-1.982-.935-2.4,1.349-.191,1.034.308,2.5.122,4.008-.3,2.447-1.229,5.751-1.232,6.66C397.472,406.019,449.683,404.384,467.4,390.051Z" transform="translate(-397.494 -379.99)" fill="#8762d9"/></g><g transform="translate(25.937 24.313)"><path d="M460.024,413.488a35.552,35.552,0,0,1,2.951-3.364.65.65,0,0,1,1.029.015,2.672,2.672,0,0,1,.42.607c-.007.085-2.274,1.762-3.028,2.519.832.618,3.761,1.725,3.958,1.954a.656.656,0,0,1-.577,1.017C464.407,416.185,461.306,415.085,460.024,413.488Z" transform="translate(-460.022 -408.018)" fill="#fff"/><path d="M472.773,415.263c3.574-4.724,3.795-9.679,4.1-9.823a2.457,2.457,0,0,1,1.043.044c1.493.214-2.616,9.55-4.3,9.774C473.347,415.294,472.919,415.462,472.773,415.263Z" transform="translate(-467.484 -405.393)" fill="#fff"/><path d="M493.515,410.82a39.213,39.213,0,0,1-3.16,3.382.64.64,0,0,1-1.022-.016,2.449,2.449,0,0,1-.377-.611c.012-.086,2.467-1.961,3.267-2.722-.786-.622-3.461-1.388-3.641-1.618-.249-.319-.738-1.489.159-1.224C489.094,408.115,492.347,409.215,493.515,410.82Z" transform="translate(-476.526 -406.902)" fill="#fff"/></g><g transform="translate(19.75 37.216)"><circle cx="3.623" cy="3.623" r="3.623" transform="translate(0)"/><circle cx="0.81" cy="0.81" r="0.81" transform="translate(1.742 1.741)" fill="#fff"/></g><path d="M513.8,434.741c.885,1.431-.292.716-2.234-.462-1.48-.9-2.233-1.246-6.917-.528-4.538.7-7.217,1.714-9.508,3.241-1.2.8-1.769-1.237.579-3.055C496.341,433.459,508.049,425.439,513.8,434.741Z" transform="translate(-454.029 -395.637)"/><g transform="translate(44.432 37.216)"><circle cx="3.623" cy="3.623" r="3.623"/><circle cx="0.81" cy="0.81" r="0.81" transform="translate(1.742 1.741)" fill="#fff"/></g></g></svg>